<?xml version="1.0" encoding="UTF-8" standalone="no"?>
<svg
   width="100mm"
   height="100mm"
   viewBox="0 0 100 100"
   version="1.1"
   id="svg8"
   inkscape:version="1.1 (c68e22c387, 2021-05-23)"
   sodipodi:docname="who.svg"
   xmlns:inkscape="http://www.inkscape.org/namespaces/inkscape"
   xmlns:sodipodi="http://sodipodi.sourceforge.net/DTD/sodipodi-0.dtd"
   xmlns:xlink="http://www.w3.org/1999/xlink"
   xmlns="http://www.w3.org/2000/svg"
   xmlns:svg="http://www.w3.org/2000/svg"
   xmlns:rdf="http://www.w3.org/1999/02/22-rdf-syntax-ns#"
   xmlns:cc="http://creativecommons.org/ns#"
   xmlns:dc="http://purl.org/dc/elements/1.1/">
  <defs
     id="defs2" />
  <sodipodi:namedview
     gridtolerance="10"
     objecttolerance="10"
     id="base"
     pagecolor="#ffffff"
     bordercolor="#666666"
     borderopacity="1.0"
     inkscape:pageopacity="0.0"
     inkscape:pageshadow="2"
     inkscape:zoom="0.86942779"
     inkscape:cx="156.99981"
     inkscape:cy="208.75799"
     inkscape:document-units="mm"
     inkscape:current-layer="layer5"
     inkscape:document-rotation="0"
     showgrid="true"
     inkscape:window-width="1920"
     inkscape:window-height="1051"
     inkscape:window-x="-9"
     inkscape:window-y="-9"
     inkscape:window-maximized="1"
     inkscape:pagecheckerboard="0"
     guidetolerance="10">
    <inkscape:grid
       spacingy="10"
       spacingx="10"
       units="mm"
       id="grid851"
       type="xygrid" />
  </sodipodi:namedview>
  <metadata
     id="metadata5">
    <rdf:RDF>
      <cc:Work
         rdf:about="">
        <dc:format>image/svg+xml</dc:format>
        <dc:type
           rdf:resource="http://purl.org/dc/dcmitype/StillImage" />
      </cc:Work>
    </rdf:RDF>
  </metadata>
  <g
     style="display:inline"
     inkscape:label="Immutable"
     id="layer4"
     inkscape:groupmode="layer"
     sodipodi:insensitive="true">
    <text
       xml:space="preserve"
       style="font-size:10.5833px;line-height:1.25;font-family:Steamy;-inkscape-font-specification:Steamy;stroke-width:0.264583"
       x="-102.29539"
       y="16.872026"
       id="text3481"><tspan
         sodipodi:role="line"
         id="tspan3479"
         style="font-style:normal;font-variant:normal;font-weight:normal;font-stretch:normal;font-family:Arial;-inkscape-font-specification:Arial;stroke-width:0.264583"
         x="-102.29539"
         y="16.872026">R50</tspan></text>
    <text
       xml:space="preserve"
       style="font-size:10.5833px;line-height:1.25;font-family:Steamy;-inkscape-font-specification:Steamy;display:inline;stroke-width:0.264583"
       x="-102.29539"
       y="87.976051"
       id="text3481-5"><tspan
         sodipodi:role="line"
         id="tspan3479-6"
         style="font-style:normal;font-variant:normal;font-weight:normal;font-stretch:normal;font-family:Arial;-inkscape-font-specification:Arial;stroke-width:0.264583"
         x="-102.29539"
         y="87.976051">R20</tspan></text>
    <text
       xml:space="preserve"
       style="font-size:10.5833px;line-height:1.25;font-family:Steamy;-inkscape-font-specification:Steamy;stroke-width:0.264583"
       x="-100"
       y="200"
       id="text12410"><tspan
         sodipodi:role="line"
         style="stroke-width:0.264583"
         x="-100"
         y="200"
         id="tspan19090" /></text>
    <text
       xml:space="preserve"
       style="font-size:10.5833px;line-height:1.25;font-family:Steamy;-inkscape-font-specification:Steamy;stroke-width:0.264583"
       x="-120"
       y="180"
       id="text24310"><tspan
         sodipodi:role="line"
         id="tspan24308"
         style="stroke-width:0.264583"
         x="-120"
         y="180" /></text>
    <text
       xml:space="preserve"
       style="font-size:10.5833px;line-height:1.25;font-family:Steamy;-inkscape-font-specification:Steamy;display:inline;stroke-width:0.264583"
       x="-102.29539"
       y="118.97605"
       id="text3481-5-9"><tspan
         sodipodi:role="line"
         id="tspan3479-6-4"
         style="font-style:normal;font-variant:normal;font-weight:normal;font-stretch:normal;font-family:Arial;-inkscape-font-specification:Arial;stroke-width:0.264583"
         x="-102.29539"
         y="118.97605">R10</tspan></text>
    <text
       xml:space="preserve"
       style="font-size:10.5833px;line-height:1.25;font-family:Steamy;-inkscape-font-specification:Steamy;display:inline;stroke-width:0.264583"
       x="-99.280258"
       y="135.77609"
       id="text3481-5-9-8"><tspan
         sodipodi:role="line"
         id="tspan3479-6-4-1"
         style="font-style:normal;font-variant:normal;font-weight:normal;font-stretch:normal;font-family:Arial;-inkscape-font-specification:Arial;stroke-width:0.264583"
         x="-99.280258"
         y="135.77609">R6</tspan></text>
  </g>
  <g
     inkscape:groupmode="layer"
     id="layer2"
     inkscape:label="Helpers"
     style="display:inline"
     sodipodi:insensitive="true">
    <circle
       id="path9319"
       cx="-92.425217"
       cy="13.133248"
       style="display:inline;fill:none;stroke:#0000ff;stroke-width:1;stroke-miterlimit:4;stroke-dasharray:none;stroke-opacity:1"
       r="50" />
    <circle
       style="display:inline;fill:none;stroke:#0000ff;stroke-width:1;stroke-miterlimit:4;stroke-dasharray:none;stroke-opacity:1"
       id="path34909"
       cx="-92.425217"
       cy="84.237267"
       r="20" />
    <circle
       style="display:inline;fill:none;stroke:#0000ff;stroke-width:1;stroke-miterlimit:4;stroke-dasharray:none;stroke-opacity:1"
       id="path35013"
       cx="-92.425217"
       cy="115.23727"
       r="10" />
    <circle
       style="display:inline;fill:none;stroke:#0000ff;stroke-width:1;stroke-miterlimit:4;stroke-dasharray:none;stroke-opacity:1"
       id="path35013-5"
       cx="-92.425217"
       cy="132.23727"
       r="6" />
    <path
       sodipodi:type="star"
       style="fill:#000000;fill-opacity:1;stroke:none;stroke-width:3.77953;stroke-miterlimit:4;stroke-dasharray:none;stroke-opacity:1"
       id="path43714"
       inkscape:flatsided="false"
       sodipodi:sides="5"
       sodipodi:cx="188.97638"
       sodipodi:cy="188.97638"
       sodipodi:r1="207.40555"
       sodipodi:r2="4.1481109"
       sodipodi:arg1="0.31415927"
       sodipodi:arg2="0.9424778"
       inkscape:rounded="0"
       inkscape:randomized="0"
       d="m 386.23078,253.06822 -194.8162,-60.73595 -2.4382,204.04966 -2.4382,-204.04966 L -8.2780189,253.06822 185.03129,187.69454 67.066458,21.181766 188.97638,184.82827 310.8863,21.181767 192.92147,187.69454 Z"
       transform="scale(0.26458333)"
       inkscape:transform-center-y="5.2401959" />
    <circle
       style="fill:#0000ff;fill-opacity:1;stroke:none;stroke-width:1;stroke-opacity:1"
       id="path1443"
       cx="-92.425217"
       cy="144.81467"
       r="2.5" />
    <circle
       style="display:inline;fill:#0000ff;fill-opacity:1;stroke:none;stroke-width:1;stroke-opacity:1"
       id="path1443-5"
       cx="-92.425217"
       cy="152.25172"
       r="2" />
    <g
       id="g4473"
       style="display:inline"
       transform="translate(0.90737292)">
      <circle
         style="display:inline;fill:#0000ff;fill-opacity:1;stroke:none;stroke-width:1;stroke-opacity:1"
         id="path1443-5-6-9"
         cx="-93.385559"
         cy="160.80826"
         r="2" />
      <circle
         style="display:inline;fill:#0000ff;fill-opacity:1;stroke:none;stroke-width:1;stroke-opacity:1"
         id="path1443-5-6-7-85"
         cx="-166.71454"
         cy="91.022903"
         r="2"
         inkscape:transform-center-y="-9.586875"
         transform="rotate(-30)"
         inkscape:transform-center-x="5.5349849" />
      <circle
         style="display:inline;fill:#0000ff;fill-opacity:1;stroke:none;stroke-width:1;stroke-opacity:1"
         id="path1443-5-6-7-8-3"
         cx="5.057755"
         cy="184.3555"
         r="2"
         inkscape:transform-center-y="-9.586877"
         transform="rotate(30)"
         inkscape:transform-center-x="-5.5349891" />
    </g>
  </g>
  <g
     style="display:inline"
     inkscape:label="Target"
     id="layer3"
     inkscape:groupmode="layer"
     sodipodi:insensitive="true">
    <image
       xlink:href="Assets/Im%20saving%20the%20world,%20I%20need%20a%20desent%20shirt.%201309.png"
       y="-1.7799999e-15"
       x="110"
       width="147"
       height="86.300003"
       preserveAspectRatio="none"
       id="image873"
       style="stroke-width:1.84228" />
    <text
       id="text859"
       y="-19.799999"
       x="110"
       style="font-style:normal;font-weight:normal;font-size:10.6px;line-height:1.25;font-family:sans-serif;letter-spacing:0px;word-spacing:0px;fill:#000000;fill-opacity:1;stroke:none;stroke-width:0.265px;stroke-linecap:butt;stroke-linejoin:miter;stroke-opacity:1"
       xml:space="preserve"><tspan
         style="stroke-width:0.265px"
         y="-19.799999"
         x="110"
         id="tspan857"
         sodipodi:role="line">Im saving the world,</tspan><tspan
         id="tspan861"
         style="stroke-width:0.265px"
         y="-6.5499988"
         x="110"
         sodipodi:role="line">I need a desent shirt.</tspan></text>
  </g>
  <g
     inkscape:label="Work"
     inkscape:groupmode="layer"
     id="layer1"
     style="display:inline" />
  <g
     style="display:none"
     inkscape:label="Done"
     id="layer5"
     inkscape:groupmode="layer">
    <g
       id="g918"
       transform="translate(117,-42.1)"
       inkscape:label="I'm"
       style="display:inline">
      <circle
         r="49.5"
         cy="150"
         cx="150"
         id="path833"
         style="opacity:0.99;fill:#ffffff;fill-opacity:0;stroke:#0000ff;stroke-width:1;stroke-miterlimit:4;stroke-dasharray:none;stroke-opacity:1;paint-order:stroke markers fill" />
      <circle
         style="opacity:0.99;fill:#ffffff;fill-opacity:0;stroke:#0000ff;stroke-width:1;stroke-miterlimit:4;stroke-dasharray:none;stroke-opacity:1;paint-order:stroke markers fill"
         id="path833-5"
         cx="150"
         cy="200"
         r="9.5" />
      <circle
         r="19.5"
         cy="120"
         cx="150"
         id="path833-5-9"
         style="opacity:0.99;fill:#ffffff;fill-opacity:0;stroke:#0000ff;stroke-width:1;stroke-miterlimit:4;stroke-dasharray:none;stroke-opacity:1;paint-order:stroke markers fill" />
      <path
         id="path869"
         d="m 135,134 -16,12"
         style="fill:none;fill-rule:evenodd;stroke:#0000ff;stroke-width:1;stroke-linecap:butt;stroke-linejoin:miter;stroke-miterlimit:4;stroke-dasharray:none;stroke-opacity:1" />
      <path
         id="path871"
         d="m 167,131 17,12"
         style="fill:none;fill-rule:evenodd;stroke:#0000ff;stroke-width:1;stroke-linecap:butt;stroke-linejoin:miter;stroke-miterlimit:4;stroke-dasharray:none;stroke-opacity:1" />
      <path
         id="path873"
         d="m 151,139 v 51"
         style="fill:none;fill-rule:evenodd;stroke:#0000ff;stroke-width:1;stroke-linecap:butt;stroke-linejoin:miter;stroke-miterlimit:4;stroke-dasharray:none;stroke-opacity:1" />
    </g>
    <g
       id="g43526"
       transform="translate(346.24564,61.176681)"
       style="display:inline"
       inkscape:label="Saving">
      <path
         id="path42511"
         style="font-variation-settings:normal;opacity:1;vector-effect:none;fill:none;fill-opacity:1;stroke:#0000ff;stroke-width:1;stroke-linecap:butt;stroke-linejoin:miter;stroke-miterlimit:4;stroke-dasharray:none;stroke-dashoffset:0;stroke-opacity:1;-inkscape-stroke:none;stop-color:#000000;stop-opacity:1"
         d="M 23.376424,14.553249 43.640666,81.51324 M 18.847157,77.03222 33.75436,88.823319 M 75.046268,28.764404 56.590008,81.344014 M 15.444715,12.684743 a 6,6 0 0 1 1.327391,-8.3808129 6,6 0 0 1 8.380813,1.3273904 6,6 0 0 1 -1.32739,8.3808135 6,6 0 0 1 -8.380814,-1.327391 z M 105.65665,61.82891 a 6,6 0 0 1 3.85223,7.560439 6,6 0 0 1 -7.56044,3.852237 6,6 0 0 1 -3.852231,-7.560438 6,6 0 0 1 7.560441,-3.852238 z M 50.067744,0.07596438 A 50,50 0 0 0 0.06769644,50.076012 50,50 0 0 0 30.589863,96.110929 19.999999,19.999999 0 0 1 50.067744,80.575958 19.999999,19.999999 0 0 1 69.558028,96.105765 50,50 0 0 0 100.06779,50.076013 50,50 0 0 0 92.901822,24.28689 20,20 0 0 1 67.995331,25.400516 20,20 0 0 1 61.358012,1.3678751 50,50 0 0 0 50.067744,0.07596438 Z M 8.1728673,84.644927 A 20,20 0 0 1 -17.028602,71.804136 20,20 0 0 1 -4.1878125,46.602666 20,20 0 0 1 21.013659,59.443456 20,20 0 0 1 8.1728673,84.644927 Z" />
      <path
         style="font-variation-settings:normal;opacity:1;vector-effect:none;fill:none;fill-opacity:1;stroke:#0000ff;stroke-width:1;stroke-linecap:butt;stroke-linejoin:miter;stroke-miterlimit:4;stroke-dasharray:none;stroke-dashoffset:0;stroke-opacity:1;-inkscape-stroke:none;stop-color:#000000;stop-opacity:1"
         d="M -5.694693,80.805651 -10,87.764989"
         id="path43439" />
      <path
         style="font-variation-settings:normal;opacity:1;vector-effect:none;fill:none;fill-opacity:1;stroke:#0000ff;stroke-width:1;stroke-linecap:butt;stroke-linejoin:miter;stroke-miterlimit:4;stroke-dasharray:none;stroke-dashoffset:0;stroke-opacity:1;-inkscape-stroke:none;stop-color:#000000;stop-opacity:1"
         d="M -12.654032,54.832874 -20,44.832873"
         id="path43441" />
    </g>
    <path
       id="path34909-0"
       style="display:inline;fill:none;stroke:#0000ff"
       d="m 530.55398,155.74707 a 20,20 0 0 1 -20,20 20,20 0 0 1 -20,-20 20,20 0 0 1 20,-19.99999 20,20 0 0 1 20,19.99999 z m 30,-50.49998 a 50,50 0 0 1 -50,49.99999 50,50 0 0 1 -50,-49.99999 50,50 0 0 1 50,-50.000003 50,50 0 0 1 50,50.000003 z m -44,50.49999 a 6,6 0 0 1 -6,6 6,6 0 0 1 -6,-6 6,6 0 0 1 6,-6 6,6 0 0 1 6,6 z"
       inkscape:label="The" />
    <g
       id="g1307"
       inkscape:label="World"
       transform="translate(579.72367,53.016774)"
       style="display:inline">
      <circle
         style="display:inline;fill:#0000ff;fill-opacity:1;stroke:none;stroke-width:1;stroke-opacity:1"
         id="path1443-5-6"
         cx="-11.640282"
         cy="-47.294338"
         r="2"
         transform="rotate(144)" />
      <circle
         style="display:inline;fill:#0000ff;fill-opacity:1;stroke:none;stroke-width:1;stroke-opacity:1"
         id="path1443-2"
         cx="-53.658848"
         cy="37.634232"
         r="2"
         inkscape:transform-center-x="-8.2398217"
         inkscape:transform-center-y="-22.728185"
         transform="rotate(-123.66617)" />
      <circle
         style="display:inline;fill:#0000ff;fill-opacity:1;stroke:none;stroke-width:1;stroke-opacity:1"
         id="path1443-2-1"
         cx="-79.762047"
         cy="16.677528"
         r="2"
         inkscape:transform-center-x="8.1112089"
         inkscape:transform-center-y="-22.815892"
         transform="rotate(-143.66617)" />
      <path
         id="path34909-9"
         style="display:inline;fill:none;stroke:#0000ff;stroke-width:3.77953"
         d="M 191.94922,3.5507812 A 188.97638,188.97638 0 0 0 2.9726562,192.52734 a 188.97638,188.97638 0 0 0 2.0195313,27.2461 54.80315,54.80315 0 0 1 52.7988285,-40.21485 54.80315,54.80315 0 0 1 54.802734,54.80469 54.80315,54.80315 0 0 1 -54.802734,54.80274 54.80315,54.80315 0 0 1 -35.205078,-12.94141 188.97638,188.97638 0 0 0 95.695312,90.27148 75.590551,75.590551 0 0 1 73.66797,-58.69336 75.590551,75.590551 0 0 1 73.66211,58.74805 A 188.97638,188.97638 0 0 0 380.92578,192.52734 188.97638,188.97638 0 0 0 354.35156,95.902344 75.590547,75.590547 0 0 1 260.20703,100.20508 75.590547,75.590547 0 0 1 235.53711,8.6523438 188.97638,188.97638 0 0 0 191.94922,3.5507812 Z M 114.61914,30.728516 A 54.80315,54.80315 0 0 1 160.59375,53.294922 54.80315,54.80315 0 0 1 148.4707,129.84375 54.80315,54.80315 0 0 1 71.921875,117.7207 54.80315,54.80315 0 0 1 84.044922,41.169922 54.80315,54.80315 0 0 1 114.61914,30.728516 Z M 346.8457,221.35547 a 22.677165,22.677165 0 0 1 7.51563,1.10547 22.677165,22.677165 0 0 1 14.56055,28.57422 22.677165,22.677165 0 0 1 -28.57422,14.56054 22.677165,22.677165 0 0 1 -14.56055,-28.57617 22.677165,22.677165 0 0 1 21.05859,-15.66406 z"
         transform="scale(0.26458333)" />
      <circle
         style="display:inline;fill:#0000ff;fill-opacity:1;stroke:none;stroke-width:1;stroke-opacity:1"
         id="path1443-9"
         cx="-71.481155"
         cy="13.862948"
         r="2.5"
         transform="rotate(-144)" />
      <circle
         style="display:inline;fill:#0000ff;fill-opacity:1;stroke:none;stroke-width:1;stroke-opacity:1"
         id="path1443-5-6-7"
         cx="8.1302423"
         cy="-48.326588"
         r="2"
         inkscape:transform-center-y="-9.586875"
         transform="rotate(114)"
         inkscape:transform-center-x="5.5349849" />
      <circle
         style="display:inline;fill:#0000ff;fill-opacity:1;stroke:none;stroke-width:1;stroke-opacity:1"
         id="path1443-5-6-7-8"
         cx="-28.200054"
         cy="-36.739281"
         r="2"
         inkscape:transform-center-y="-9.586877"
         transform="rotate(174)"
         inkscape:transform-center-x="-5.5349891" />
      <circle
         style="display:inline;fill:#0000ff;fill-opacity:1;stroke:none;stroke-width:1;stroke-opacity:1"
         id="path1443-5-6-8"
         cx="63.300694"
         cy="-5.6864448"
         r="2"
         transform="rotate(72)" />
      <circle
         style="display:inline;fill:#0000ff;fill-opacity:1;stroke:none;stroke-width:1;stroke-opacity:1"
         id="path1443-5-6-7-4"
         cx="52.227081"
         cy="25.177399"
         r="2"
         inkscape:transform-center-y="-9.586875"
         transform="rotate(42)"
         inkscape:transform-center-x="5.5349849" />
      <circle
         style="display:inline;fill:#0000ff;fill-opacity:1;stroke:none;stroke-width:1;stroke-opacity:1"
         id="path1443-5-6-7-8-2"
         cx="57.504681"
         cy="-38.17627"
         r="2"
         inkscape:transform-center-y="-9.586877"
         transform="rotate(102)"
         inkscape:transform-center-x="-5.5349891" />
      <path
         style="font-variation-settings:normal;opacity:1;vector-effect:none;fill:none;fill-opacity:1;stroke:#0000ff;stroke-width:1;stroke-linecap:butt;stroke-linejoin:miter;stroke-miterlimit:4;stroke-dasharray:none;stroke-dashoffset:0;stroke-opacity:1;-inkscape-stroke:none;stop-color:#000000;stop-opacity:1"
         d="m 38.201943,69.999999 c 3.595476,9.999999 4.044911,9.999999 4.044911,9.999999"
         id="path1211" />
      <path
         style="font-variation-settings:normal;opacity:1;vector-effect:none;fill:none;fill-opacity:1;stroke:#0000ff;stroke-width:1;stroke-linecap:butt;stroke-linejoin:miter;stroke-miterlimit:4;stroke-dasharray:none;stroke-dashoffset:0;stroke-opacity:1;-inkscape-stroke:none;stop-color:#000000;stop-opacity:1"
         d="m 65.317832,69.999999 c -5.317834,9.999999 -5.317834,9.999999 -5.317834,9.999999"
         id="path1213" />
    </g>
  </g>
</svg>
