<?xml version="1.0" encoding="UTF-8" standalone="no"?>
<svg
  xmlns:dc="http://purl.org/dc/elements/1.1/"
  xmlns:cc="http://creativecommons.org/ns#"
  xmlns:rdf="http://www.w3.org/1999/02/22-rdf-syntax-ns#"
  xmlns:svg="http://www.w3.org/2000/svg"
  xmlns="http://www.w3.org/2000/svg"
  xmlns:sodipodi="http://sodipodi.sourceforge.net/DTD/sodipodi-0.dtd"
  xmlns:inkscape="http://www.inkscape.org/namespaces/inkscape"
  width="100mm"
  height="100mm"
  viewBox="0 0 100 100"
  version="1.1"
  id="svg8"
  inkscape:version="1.0 (4035a4fb49, 2020-05-01)"
  sodipodi:docname="who.svg">
 <defs
   id="defs2" />
 <sodipodi:namedview
   id="base"
   pagecolor="#ffffff"
   bordercolor="#666666"
   borderopacity="1.0"
   inkscape:pageopacity="0.0"
   inkscape:pageshadow="2"
   inkscape:zoom="0.385"
   inkscape:cx="239"
   inkscape:cy="397"
   inkscape:document-units="mm"
   inkscape:current-layer="layer2"
   inkscape:document-rotation="0"
   showgrid="false"
   inkscape:window-width="942"
   inkscape:window-height="1001"
   inkscape:window-x="0"
   inkscape:window-y="1080"
   inkscape:window-maximized="0" />
 <metadata
   id="metadata5">
  <rdf:RDF>
   <cc:Work
     rdf:about="">
    <dc:format>image/svg+xml</dc:format>
    <dc:type
      rdf:resource="http://purl.org/dc/dcmitype/StillImage" />
    <dc:title />
   </cc:Work>
  </rdf:RDF>
 </metadata>
 <g
   sodipodi:insensitive="true"
   inkscape:groupmode="layer"
   id="layer2"
   inkscape:label="Calque 2"
   style="display:inline">
  <path
    sodipodi:type="star"
    style="opacity:0.99;fill:#000000;fill-opacity:1;stroke:none;stroke-width:1.002;stroke-miterlimit:4;stroke-dasharray:none;stroke-opacity:1;paint-order:stroke markers fill"
    id="path835"
    sodipodi:sides="5"
    sodipodi:cx="50.9"
    sodipodi:cy="117"
    sodipodi:r1="42.9"
    sodipodi:r2="2.15"
    sodipodi:arg1="1.05"
    sodipodi:arg2="1.68"
    inkscape:flatsided="false"
    inkscape:rounded="1.27e-15"
    inkscape:randomized="0"
    d="m 72.2,154 -21.5,-35 -28.6,30 26.7,-32 -37,-17.6 38,15.6 5.7,-40.7 -3.2,40.7 40.6,-7 -40,10 z"
    inkscape:transform-center-x="-4.17"
    inkscape:transform-center-y="-1.71"
    transform="matrix(1.14,0.627,-0.627,1.14,65.3,-115)" />
 </g>
 <g
   inkscape:label="Calque 1"
   inkscape:groupmode="layer"
   id="layer1"
   style="display:inline">
  <g
    id="g918"
    transform="translate(117,-42.1)">
   <title
     id="title841">I'm</title>
   <circle
     r="49.5"
     cy="150"
     cx="150"
     id="path833"
     style="opacity:0.99;fill:#ffffff;fill-opacity:0;stroke:#0000ff;stroke-width:1;stroke-miterlimit:4;stroke-dasharray:none;stroke-opacity:1;paint-order:stroke markers fill" />
   <circle
     style="opacity:0.99;fill:#ffffff;fill-opacity:0;stroke:#0000ff;stroke-width:0.999913;stroke-miterlimit:4;stroke-dasharray:none;stroke-opacity:1;paint-order:stroke markers fill"
     id="path833-5"
     cx="150"
     cy="200"
     r="9.5" />
   <circle
     r="19.5"
     cy="120"
     cx="150"
     id="path833-5-9"
     style="opacity:0.99;fill:#ffffff;fill-opacity:0;stroke:#0000ff;stroke-width:1.00002;stroke-miterlimit:4;stroke-dasharray:none;stroke-opacity:1;paint-order:stroke markers fill" />
   <path
     id="path869"
     d="m 135,134 -16,12"
     style="fill:none;fill-rule:evenodd;stroke:#0000ff;stroke-width:1;stroke-linecap:butt;stroke-linejoin:miter;stroke-miterlimit:4;stroke-dasharray:none;stroke-opacity:1" />
   <path
     id="path871"
     d="m 167,131 17,12"
     style="fill:none;fill-rule:evenodd;stroke:#0000ff;stroke-width:1;stroke-linecap:butt;stroke-linejoin:miter;stroke-miterlimit:4;stroke-dasharray:none;stroke-opacity:1" />
   <path
     id="path873"
     d="m 151,139 v 51"
     style="fill:none;fill-rule:evenodd;stroke:#0000ff;stroke-width:1;stroke-linecap:butt;stroke-linejoin:miter;stroke-miterlimit:4;stroke-dasharray:none;stroke-opacity:1" />
  </g>
  <path
    id="path833-56"
    style="opacity:0.99;fill:#ffffff;fill-opacity:0;stroke:#0000ff;stroke-width:1.00316;stroke-miterlimit:4;stroke-dasharray:none;stroke-opacity:1;paint-order:stroke markers fill"
    d="M 97.5,35.3 A 49.6,49.6 45 0 0 90.4,21.4 49.6,49.6 45 0 0 38.8,2.09 19.5,19.5 0 0 1 32.2,25.8 19.5,19.5 0 0 1 7.85,24.5 49.6,49.6 45 0 0 10,79.6 49.6,49.6 45 0 0 79.3,90.7 49.6,49.6 45 0 0 79.5,90.6 49.6,49.6 45 0 0 97.5,35.3 Z M 2.52,65.9 A 9.51,9.51 0 0 0 -9.99,59.9 9.51,9.51 0 0 0 -16.6,72 9.51,9.51 0 0 0 -4.13,78 9.51,9.51 0 0 0 2.52,65.9 Z"
    inkscape:transform-center-x="8.44"
    inkscape:transform-center-y="0.0897" />
  <circle
    style="opacity:0.99;fill:#ffffff;fill-opacity:0;stroke:#0000ff;stroke-width:0.999985;stroke-miterlimit:4;stroke-dasharray:none;stroke-opacity:1;paint-order:stroke markers fill"
    id="path942"
    cx="50"
    cy="98.2"
    r="19.5" />
 </g>
</svg>
